<?xml version="1.0" encoding="UTF-8" standalone="no"?>
<svg
   xmlns:osb="http://www.openswatchbook.org/uri/2009/osb"
   xmlns:dc="http://purl.org/dc/elements/1.1/"
   xmlns:cc="http://creativecommons.org/ns#"
   xmlns:rdf="http://www.w3.org/1999/02/22-rdf-syntax-ns#"
   xmlns:svg="http://www.w3.org/2000/svg"
   xmlns="http://www.w3.org/2000/svg"
   xmlns:xlink="http://www.w3.org/1999/xlink"
   id="svg8"
   version="1.1"
   viewBox="0 0 210 297"
   height="297mm"
   width="210mm">
  <defs
     id="defs2">
    <linearGradient
       id="linearGradient2858">
      <stop
         id="stop2854"
         offset="0"
         style="stop-color:#90bffe;stop-opacity:1;" />
      <stop
         id="stop2856"
         offset="1"
         style="stop-color:#90bffe;stop-opacity:0;" />
    </linearGradient>
    <linearGradient
       id="linearGradient2850">
      <stop
         id="stop2846"
         offset="0"
         style="stop-color:#5881d8;stop-opacity:1;" />
      <stop
         id="stop2848"
         offset="1"
         style="stop-color:#5881d8;stop-opacity:0;" />
    </linearGradient>
    <linearGradient
       id="linearGradient2816">
      <stop
         id="stop2812"
         offset="0"
         style="stop-color:#91dc47;stop-opacity:1;" />
      <stop
         id="stop2814"
         offset="1"
         style="stop-color:#91dc47;stop-opacity:0;" />
    </linearGradient>
    <linearGradient
       id="linearGradient2796">
      <stop
         id="stop2792"
         offset="0"
         style="stop-color:#63b132;stop-opacity:1;" />
      <stop
         id="stop2794"
         offset="1"
         style="stop-color:#63b132;stop-opacity:0;" />
    </linearGradient>
    <linearGradient
       osb:paint="solid"
       id="linearGradient2788">
      <stop
         id="stop2786"
         offset="0"
         style="stop-color:#000000;stop-opacity:1;" />
    </linearGradient>
    <radialGradient
       gradientUnits="userSpaceOnUse"
       gradientTransform="matrix(1,0,0,0.89532976,-6.0128202,29.28528)"
       r="48.710403"
       fy="68.186333"
       fx="59.099266"
       cy="68.186333"
       cx="59.099266"
       id="radialGradient2798"
       xlink:href="#linearGradient2796" />
    <radialGradient
       gradientUnits="userSpaceOnUse"
       gradientTransform="matrix(1,0,0,0.89532976,4.8581585,102.3086)"
       r="48.710403"
       fy="25.113499"
       fx="88.923271"
       cy="25.113499"
       cx="88.923271"
       id="radialGradient2818"
       xlink:href="#linearGradient2816" />
    <radialGradient
       gradientUnits="userSpaceOnUse"
       gradientTransform="matrix(1,0,0,0.89532976,-2.5743049,66.668441)"
       r="48.710403"
       fy="56.166756"
       fx="153.98158"
       cy="56.166756"
       cx="153.98158"
       id="radialGradient2852"
       xlink:href="#linearGradient2850" />
    <radialGradient
       gradientUnits="userSpaceOnUse"
       gradientTransform="matrix(1,0,0,0.89532976,19.043736,61.557222)"
       r="48.710403"
       fy="24.587124"
       fx="125.74165"
       cy="24.587124"
       cx="125.74165"
       id="radialGradient2860"
       xlink:href="#linearGradient2858" />
    <clipPath
       id="clipPath2903"
       clipPathUnits="userSpaceOnUse">
      <g
         transform="translate(-4.952208,-62.970839)"
         style="font-style:normal;font-variant:normal;font-weight:bold;font-stretch:normal;font-size:50.8px;line-height:1.25;font-family:'Open Sans';-inkscape-font-specification:'Open Sans Bold';letter-spacing:-2.64583px;fill:#000000;fill-opacity:1;stroke:none;stroke-width:0.264583"
         id="g2911"
         aria-label="cmp">
        <path
           id="path2905"
           style="font-style:normal;font-variant:normal;font-weight:bold;font-stretch:normal;font-size:50.8px;font-family:'Open Sans';-inkscape-font-specification:'Open Sans Bold';stroke-width:0.264583"
           d="m 73.383684,177.5865 q -12.948046,0 -12.948046,-14.21308 0,-7.06934 3.522265,-10.79004 3.522266,-3.74551 10.095508,-3.74551 4.812109,0 8.632031,1.88516 l -2.232422,5.8539 q -1.785937,-0.71933 -3.323828,-1.16582 -1.537891,-0.47129 -3.075781,-0.47129 -5.903516,0 -5.903516,8.38399 0,8.13593 5.903516,8.13593 2.182812,0 4.043164,-0.5705 1.860351,-0.59532 3.720703,-1.83555 v 6.47402 q -1.835547,1.16582 -3.720703,1.61231 -1.860352,0.44648 -4.712891,0.44648 z" />
        <path
           id="path2907"
           style="font-style:normal;font-variant:normal;font-weight:bold;font-stretch:normal;font-size:50.8px;font-family:'Open Sans';-inkscape-font-specification:'Open Sans Bold';stroke-width:0.264583"
           d="m 110.42535,177.09041 h -7.56543 v -16.19746 q 0,-3.00137 -1.01699,-4.48965 -0.99219,-1.51309 -3.150194,-1.51309 -2.902148,0 -4.216797,2.13321 -1.314648,2.1332 -1.314648,7.01972 v 13.04727 h -7.56543 v -27.73164 h 5.779492 l 1.016993,3.54707 h 0.421679 q 1.116211,-1.90996 3.22461,-2.97656 2.108398,-1.09141 4.836915,-1.09141 6.22598,0 8.43359,4.06797 h 0.66973 q 1.11621,-1.93477 3.27422,-3.00137 2.18281,-1.0666 4.91133,-1.0666 4.71289,0 7.11894,2.43086 2.43086,2.40605 2.43086,7.73906 v 18.08262 h -7.59023 v -16.19746 q 0,-3.00137 -1.017,-4.48965 -0.99218,-1.51309 -3.15019,-1.51309 -2.77813,0 -4.16719,1.98438 -1.36426,1.98437 -1.36426,6.30039 z" />
        <path
           id="path2909"
           style="font-style:normal;font-variant:normal;font-weight:bold;font-stretch:normal;font-size:50.8px;font-family:'Open Sans';-inkscape-font-specification:'Open Sans Bold';stroke-width:0.264583"
           d="m 148.06233,177.5865 q -4.88652,0 -7.66464,-3.54707 h -0.39688 q 0.39688,3.47266 0.39688,4.01836 v 11.23652 h -7.56543 v -39.93554 h 6.15156 l 1.0666,3.59668 h 0.34727 q 2.6541,-4.11758 7.86308,-4.11758 4.91133,0 7.68945,3.79512 2.77813,3.79511 2.77813,10.54199 0,4.44004 -1.31465,7.71426 -1.28984,3.27422 -3.6959,4.98574 -2.40605,1.71152 -5.65547,1.71152 z m -2.23242,-22.69629 q -2.80293,0 -4.09277,1.73633 -1.28984,1.71152 -1.33945,5.68027 v 0.81856 q 0,4.46484 1.31464,6.39961 1.33946,1.93476 4.2168,1.93476 5.08496,0 5.08496,-8.38398 0,-4.09277 -1.26504,-6.12676 -1.24023,-2.05879 -3.91914,-2.05879 z" />
      </g>
    </clipPath>
    <clipPath
       id="clipPath2913"
       clipPathUnits="userSpaceOnUse">
      <g
         transform="translate(-4.952208,-62.970839)"
         style="font-style:normal;font-variant:normal;font-weight:bold;font-stretch:normal;font-size:50.8px;line-height:1.25;font-family:'Open Sans';-inkscape-font-specification:'Open Sans Bold';letter-spacing:-2.64583px;fill:#000000;fill-opacity:1;stroke:none;stroke-width:0.264583"
         id="g2921"
         aria-label="cmp">
        <path
           id="path2915"
           style="font-style:normal;font-variant:normal;font-weight:bold;font-stretch:normal;font-size:50.8px;font-family:'Open Sans';-inkscape-font-specification:'Open Sans Bold';stroke-width:0.264583"
           d="m 73.383684,177.5865 q -12.948046,0 -12.948046,-14.21308 0,-7.06934 3.522265,-10.79004 3.522266,-3.74551 10.095508,-3.74551 4.812109,0 8.632031,1.88516 l -2.232422,5.8539 q -1.785937,-0.71933 -3.323828,-1.16582 -1.537891,-0.47129 -3.075781,-0.47129 -5.903516,0 -5.903516,8.38399 0,8.13593 5.903516,8.13593 2.182812,0 4.043164,-0.5705 1.860351,-0.59532 3.720703,-1.83555 v 6.47402 q -1.835547,1.16582 -3.720703,1.61231 -1.860352,0.44648 -4.712891,0.44648 z" />
        <path
           id="path2917"
           style="font-style:normal;font-variant:normal;font-weight:bold;font-stretch:normal;font-size:50.8px;font-family:'Open Sans';-inkscape-font-specification:'Open Sans Bold';stroke-width:0.264583"
           d="m 110.42535,177.09041 h -7.56543 v -16.19746 q 0,-3.00137 -1.01699,-4.48965 -0.99219,-1.51309 -3.150194,-1.51309 -2.902148,0 -4.216797,2.13321 -1.314648,2.1332 -1.314648,7.01972 v 13.04727 h -7.56543 v -27.73164 h 5.779492 l 1.016993,3.54707 h 0.421679 q 1.116211,-1.90996 3.22461,-2.97656 2.108398,-1.09141 4.836915,-1.09141 6.22598,0 8.43359,4.06797 h 0.66973 q 1.11621,-1.93477 3.27422,-3.00137 2.18281,-1.0666 4.91133,-1.0666 4.71289,0 7.11894,2.43086 2.43086,2.40605 2.43086,7.73906 v 18.08262 h -7.59023 v -16.19746 q 0,-3.00137 -1.017,-4.48965 -0.99218,-1.51309 -3.15019,-1.51309 -2.77813,0 -4.16719,1.98438 -1.36426,1.98437 -1.36426,6.30039 z" />
        <path
           id="path2919"
           style="font-style:normal;font-variant:normal;font-weight:bold;font-stretch:normal;font-size:50.8px;font-family:'Open Sans';-inkscape-font-specification:'Open Sans Bold';stroke-width:0.264583"
           d="m 148.06233,177.5865 q -4.88652,0 -7.66464,-3.54707 h -0.39688 q 0.39688,3.47266 0.39688,4.01836 v 11.23652 h -7.56543 v -39.93554 h 6.15156 l 1.0666,3.59668 h 0.34727 q 2.6541,-4.11758 7.86308,-4.11758 4.91133,0 7.68945,3.79512 2.77813,3.79511 2.77813,10.54199 0,4.44004 -1.31465,7.71426 -1.28984,3.27422 -3.6959,4.98574 -2.40605,1.71152 -5.65547,1.71152 z m -2.23242,-22.69629 q -2.80293,0 -4.09277,1.73633 -1.28984,1.71152 -1.33945,5.68027 v 0.81856 q 0,4.46484 1.31464,6.39961 1.33946,1.93476 4.2168,1.93476 5.08496,0 5.08496,-8.38398 0,-4.09277 -1.26504,-6.12676 -1.24023,-2.05879 -3.91914,-2.05879 z" />
      </g>
    </clipPath>
    <clipPath
       id="clipPath2923"
       clipPathUnits="userSpaceOnUse">
      <g
         transform="translate(-4.952208,-62.970839)"
         style="font-style:normal;font-variant:normal;font-weight:bold;font-stretch:normal;font-size:50.8px;line-height:1.25;font-family:'Open Sans';-inkscape-font-specification:'Open Sans Bold';letter-spacing:-2.64583px;fill:#000000;fill-opacity:1;stroke:none;stroke-width:0.264583"
         id="g2931"
         aria-label="cmp">
        <path
           id="path2925"
           style="font-style:normal;font-variant:normal;font-weight:bold;font-stretch:normal;font-size:50.8px;font-family:'Open Sans';-inkscape-font-specification:'Open Sans Bold';stroke-width:0.264583"
           d="m 73.383684,177.5865 q -12.948046,0 -12.948046,-14.21308 0,-7.06934 3.522265,-10.79004 3.522266,-3.74551 10.095508,-3.74551 4.812109,0 8.632031,1.88516 l -2.232422,5.8539 q -1.785937,-0.71933 -3.323828,-1.16582 -1.537891,-0.47129 -3.075781,-0.47129 -5.903516,0 -5.903516,8.38399 0,8.13593 5.903516,8.13593 2.182812,0 4.043164,-0.5705 1.860351,-0.59532 3.720703,-1.83555 v 6.47402 q -1.835547,1.16582 -3.720703,1.61231 -1.860352,0.44648 -4.712891,0.44648 z" />
        <path
           id="path2927"
           style="font-style:normal;font-variant:normal;font-weight:bold;font-stretch:normal;font-size:50.8px;font-family:'Open Sans';-inkscape-font-specification:'Open Sans Bold';stroke-width:0.264583"
           d="m 110.42535,177.09041 h -7.56543 v -16.19746 q 0,-3.00137 -1.01699,-4.48965 -0.99219,-1.51309 -3.150194,-1.51309 -2.902148,0 -4.216797,2.13321 -1.314648,2.1332 -1.314648,7.01972 v 13.04727 h -7.56543 v -27.73164 h 5.779492 l 1.016993,3.54707 h 0.421679 q 1.116211,-1.90996 3.22461,-2.97656 2.108398,-1.09141 4.836915,-1.09141 6.22598,0 8.43359,4.06797 h 0.66973 q 1.11621,-1.93477 3.27422,-3.00137 2.18281,-1.0666 4.91133,-1.0666 4.71289,0 7.11894,2.43086 2.43086,2.40605 2.43086,7.73906 v 18.08262 h -7.59023 v -16.19746 q 0,-3.00137 -1.017,-4.48965 -0.99218,-1.51309 -3.15019,-1.51309 -2.77813,0 -4.16719,1.98438 -1.36426,1.98437 -1.36426,6.30039 z" />
        <path
           id="path2929"
           style="font-style:normal;font-variant:normal;font-weight:bold;font-stretch:normal;font-size:50.8px;font-family:'Open Sans';-inkscape-font-specification:'Open Sans Bold';stroke-width:0.264583"
           d="m 148.06233,177.5865 q -4.88652,0 -7.66464,-3.54707 h -0.39688 q 0.39688,3.47266 0.39688,4.01836 v 11.23652 h -7.56543 v -39.93554 h 6.15156 l 1.0666,3.59668 h 0.34727 q 2.6541,-4.11758 7.86308,-4.11758 4.91133,0 7.68945,3.79512 2.77813,3.79511 2.77813,10.54199 0,4.44004 -1.31465,7.71426 -1.28984,3.27422 -3.6959,4.98574 -2.40605,1.71152 -5.65547,1.71152 z m -2.23242,-22.69629 q -2.80293,0 -4.09277,1.73633 -1.28984,1.71152 -1.33945,5.68027 v 0.81856 q 0,4.46484 1.31464,6.39961 1.33946,1.93476 4.2168,1.93476 5.08496,0 5.08496,-8.38398 0,-4.09277 -1.26504,-6.12676 -1.24023,-2.05879 -3.91914,-2.05879 z" />
      </g>
    </clipPath>
    <clipPath
       id="clipPath2933"
       clipPathUnits="userSpaceOnUse">
      <g
         transform="translate(-4.952208,-62.970839)"
         style="font-style:normal;font-variant:normal;font-weight:bold;font-stretch:normal;font-size:50.8px;line-height:1.25;font-family:'Open Sans';-inkscape-font-specification:'Open Sans Bold';letter-spacing:-2.64583px;fill:#000000;fill-opacity:1;stroke:none;stroke-width:0.264583"
         id="g2941"
         aria-label="cmp">
        <path
           id="path2935"
           style="font-style:normal;font-variant:normal;font-weight:bold;font-stretch:normal;font-size:50.8px;font-family:'Open Sans';-inkscape-font-specification:'Open Sans Bold';stroke-width:0.264583"
           d="m 73.383684,177.5865 q -12.948046,0 -12.948046,-14.21308 0,-7.06934 3.522265,-10.79004 3.522266,-3.74551 10.095508,-3.74551 4.812109,0 8.632031,1.88516 l -2.232422,5.8539 q -1.785937,-0.71933 -3.323828,-1.16582 -1.537891,-0.47129 -3.075781,-0.47129 -5.903516,0 -5.903516,8.38399 0,8.13593 5.903516,8.13593 2.182812,0 4.043164,-0.5705 1.860351,-0.59532 3.720703,-1.83555 v 6.47402 q -1.835547,1.16582 -3.720703,1.61231 -1.860352,0.44648 -4.712891,0.44648 z" />
        <path
           id="path2937"
           style="font-style:normal;font-variant:normal;font-weight:bold;font-stretch:normal;font-size:50.8px;font-family:'Open Sans';-inkscape-font-specification:'Open Sans Bold';stroke-width:0.264583"
           d="m 110.42535,177.09041 h -7.56543 v -16.19746 q 0,-3.00137 -1.01699,-4.48965 -0.99219,-1.51309 -3.150194,-1.51309 -2.902148,0 -4.216797,2.13321 -1.314648,2.1332 -1.314648,7.01972 v 13.04727 h -7.56543 v -27.73164 h 5.779492 l 1.016993,3.54707 h 0.421679 q 1.116211,-1.90996 3.22461,-2.97656 2.108398,-1.09141 4.836915,-1.09141 6.22598,0 8.43359,4.06797 h 0.66973 q 1.11621,-1.93477 3.27422,-3.00137 2.18281,-1.0666 4.91133,-1.0666 4.71289,0 7.11894,2.43086 2.43086,2.40605 2.43086,7.73906 v 18.08262 h -7.59023 v -16.19746 q 0,-3.00137 -1.017,-4.48965 -0.99218,-1.51309 -3.15019,-1.51309 -2.77813,0 -4.16719,1.98438 -1.36426,1.98437 -1.36426,6.30039 z" />
        <path
           id="path2939"
           style="font-style:normal;font-variant:normal;font-weight:bold;font-stretch:normal;font-size:50.8px;font-family:'Open Sans';-inkscape-font-specification:'Open Sans Bold';stroke-width:0.264583"
           d="m 148.06233,177.5865 q -4.88652,0 -7.66464,-3.54707 h -0.39688 q 0.39688,3.47266 0.39688,4.01836 v 11.23652 h -7.56543 v -39.93554 h 6.15156 l 1.0666,3.59668 h 0.34727 q 2.6541,-4.11758 7.86308,-4.11758 4.91133,0 7.68945,3.79512 2.77813,3.79511 2.77813,10.54199 0,4.44004 -1.31465,7.71426 -1.28984,3.27422 -3.6959,4.98574 -2.40605,1.71152 -5.65547,1.71152 z m -2.23242,-22.69629 q -2.80293,0 -4.09277,1.73633 -1.28984,1.71152 -1.33945,5.68027 v 0.81856 q 0,4.46484 1.31464,6.39961 1.33946,1.93476 4.2168,1.93476 5.08496,0 5.08496,-8.38398 0,-4.09277 -1.26504,-6.12676 -1.24023,-2.05879 -3.91914,-2.05879 z" />
      </g>
    </clipPath>
  </defs>
  <metadata
     id="metadata5">
    <rdf:RDF>
      <cc:Work
         rdf:about="">
        <dc:format>image/svg+xml</dc:format>
        <dc:type
           rdf:resource="http://purl.org/dc/dcmitype/StillImage" />
        <dc:title></dc:title>
      </cc:Work>
    </rdf:RDF>
  </metadata>
  <g
     id="layer2">
    <g
       transform="translate(4.952208,62.970839)"
       clip-path="none"
       id="g2866">
      <ellipse
         clip-path="url(#clipPath2933)"
         style="fill:url(#radialGradient2798);fill-opacity:1;stroke-width:0.264583"
         id="path842"
         cx="53.086449"
         cy="90.334534"
         rx="48.710403"
         ry="43.611874" />
      <ellipse
         clip-path="url(#clipPath2923)"
         ry="43.611874"
         rx="48.710403"
         cy="124.79346"
         cx="93.781433"
         id="ellipse2800"
         style="fill:url(#radialGradient2818);fill-opacity:1;stroke-width:0.264583" />
      <ellipse
         clip-path="url(#clipPath2913)"
         style="fill:url(#radialGradient2852);fill-opacity:1;stroke-width:0.264583"
         id="ellipse2820"
         cx="151.40727"
         cy="116.95621"
         rx="48.710403"
         ry="43.611874" />
      <ellipse
         clip-path="url(#clipPath2903)"
         ry="43.611874"
         rx="48.710403"
         cy="83.570808"
         cx="144.78539"
         id="ellipse2832"
         style="fill:url(#radialGradient2860);fill-opacity:1;stroke-width:0.264583" />
    </g>
  </g>
  <g
     id="layer1">
    <g
       style="font-style:normal;font-weight:normal;font-size:10.5833px;line-height:1.25;font-family:sans-serif;fill:#000000;fill-opacity:1;stroke:none;stroke-width:0.264583"
       id="text839"
       aria-label="vivid:clojure-maven-plugin">
      <path
         id="path3023"
         style="font-style:normal;font-variant:normal;font-weight:bold;font-stretch:normal;font-family:'Open Sans';-inkscape-font-specification:'Open Sans Bold';stroke-width:0.264583"
         d="m 41.904164,139.39742 -2.201409,-5.77741 h 1.648473 l 1.116207,3.29178 q 0.186035,0.62528 0.232544,1.18338 h 0.03101 q 0.02584,-0.49609 0.232543,-1.18338 l 1.11104,-3.29178 h 1.648473 l -2.201409,5.77741 z" />
      <path
         id="path3025"
         style="font-style:normal;font-variant:normal;font-weight:bold;font-stretch:normal;font-family:'Open Sans';-inkscape-font-specification:'Open Sans Bold';stroke-width:0.264583"
         d="m 46.482681,132.12656 q 0,-0.76997 0.857826,-0.76997 0.857826,0 0.857826,0.76997 0,0.36691 -0.21704,0.57361 -0.211873,0.20154 -0.640786,0.20154 -0.857826,0 -0.857826,-0.77515 z m 1.643306,7.27086 H 46.54986 v -5.77741 h 1.576127 z" />
      <path
         id="path3027"
         style="font-style:normal;font-variant:normal;font-weight:bold;font-stretch:normal;font-family:'Open Sans';-inkscape-font-specification:'Open Sans Bold';stroke-width:0.264583"
         d="m 51.154215,139.39742 -2.201409,-5.77741 h 1.648473 l 1.116208,3.29178 q 0.186034,0.62528 0.232543,1.18338 h 0.03101 q 0.02584,-0.49609 0.232543,-1.18338 l 1.11104,-3.29178 h 1.648473 l -2.201409,5.77741 z" />
      <path
         id="path3029"
         style="font-style:normal;font-variant:normal;font-weight:bold;font-stretch:normal;font-family:'Open Sans';-inkscape-font-specification:'Open Sans Bold';stroke-width:0.264583"
         d="m 55.732733,132.12656 q 0,-0.76997 0.857826,-0.76997 0.857826,0 0.857826,0.76997 0,0.36691 -0.21704,0.57361 -0.211873,0.20154 -0.640786,0.20154 -0.857826,0 -0.857826,-0.77515 z m 1.643306,7.27086 h -1.576127 v -5.77741 h 1.576127 z" />
      <path
         id="path3031"
         style="font-style:normal;font-variant:normal;font-weight:bold;font-stretch:normal;font-family:'Open Sans';-inkscape-font-specification:'Open Sans Bold';stroke-width:0.264583"
         d="m 60.859018,139.50077 q -1.018022,0 -1.601964,-0.79065 -0.578774,-0.79065 -0.578774,-2.19107 0,-1.4211 0.589109,-2.21175 0.594277,-0.79581 1.63297,-0.79581 1.090369,0 1.663976,0.84749 h 0.05168 q -0.118855,-0.64595 -0.118855,-1.15238 v -1.85001 h 1.581294 v 8.04083 h -1.209225 l -0.30489,-0.74931 h -0.06718 q -0.537433,0.85266 -1.638138,0.85266 z m 0.552936,-1.25574 q 0.604613,0 0.883664,-0.35139 0.28422,-0.3514 0.310058,-1.19373 v -0.17053 q 0,-0.93017 -0.289387,-1.33325 -0.28422,-0.40307 -0.930173,-0.40307 -0.527098,0 -0.821653,0.44958 -0.289387,0.44442 -0.289387,1.29708 0,0.85266 0.294555,1.28157 0.294555,0.42374 0.842323,0.42374 z" />
      <path
         id="path3033"
         style="font-style:normal;font-variant:normal;font-weight:bold;font-stretch:normal;font-family:'Open Sans';-inkscape-font-specification:'Open Sans Bold';stroke-width:0.264583"
         d="m 65.504715,138.65844 q 0,-0.43408 0.232543,-0.65628 0.232543,-0.22221 0.676959,-0.22221 0.428913,0 0.661456,0.22737 0.237711,0.22738 0.237711,0.65112 0,0.40825 -0.237711,0.64596 -0.23771,0.23254 -0.661456,0.23254 -0.43408,0 -0.671791,-0.22737 -0.237711,-0.23255 -0.237711,-0.65113 z m 0,-4.26846 q 0,-0.43408 0.232543,-0.65628 0.232543,-0.22221 0.676959,-0.22221 0.428913,0 0.661456,0.22737 0.237711,0.22738 0.237711,0.65112 0,0.41858 -0.242878,0.65113 -0.237711,0.22737 -0.656289,0.22737 -0.43408,0 -0.671791,-0.22737 -0.237711,-0.22738 -0.237711,-0.65113 z" />
      <path
         id="path3035"
         style="font-style:normal;font-variant:normal;font-weight:bold;font-stretch:normal;font-family:'Open Sans';-inkscape-font-specification:'Open Sans Bold';stroke-width:0.264583"
         d="m 71.09092,139.50077 q -2.697501,0 -2.697501,-2.96105 0,-1.47278 0.733803,-2.24792 0.733803,-0.78031 2.103224,-0.78031 1.00252,0 1.798334,0.39274 l -0.465086,1.21956 q -0.372069,-0.14986 -0.692462,-0.24288 -0.320393,-0.0982 -0.640786,-0.0982 -1.229895,0 -1.229895,1.74666 0,1.69498 1.229895,1.69498 0.454751,0 0.842323,-0.11885 0.387572,-0.12402 0.775144,-0.38241 v 1.34875 q -0.382404,0.24288 -0.775144,0.3359 -0.387572,0.093 -0.981849,0.093 z" />
      <path
         id="path3037"
         style="font-style:normal;font-variant:normal;font-weight:bold;font-stretch:normal;font-family:'Open Sans';-inkscape-font-specification:'Open Sans Bold';stroke-width:0.264583"
         d="m 75.762455,139.39742 h -1.576126 v -8.04083 h 1.576126 z" />
      <path
         id="path3039"
         style="font-style:normal;font-variant:normal;font-weight:bold;font-stretch:normal;font-family:'Open Sans';-inkscape-font-specification:'Open Sans Bold';stroke-width:0.264583"
         d="m 78.671829,136.49838 q 0,0.85782 0.279052,1.29707 0.284219,0.43925 0.919837,0.43925 0.630451,0 0.904335,-0.43408 0.279052,-0.43925 0.279052,-1.30224 0,-0.85783 -0.279052,-1.28674 -0.279052,-0.42892 -0.91467,-0.42892 -0.63045,0 -0.909502,0.42892 -0.279052,0.42374 -0.279052,1.28674 z m 3.994575,0 q 0,1.41076 -0.744138,2.20657 -0.744138,0.79582 -2.072218,0.79582 -0.831988,0 -1.467606,-0.36174 -0.635618,-0.3669 -0.976682,-1.04902 -0.341063,-0.68213 -0.341063,-1.59163 0,-1.41593 0.738971,-2.20141 0.73897,-0.78548 2.077386,-0.78548 0.831988,0 1.467606,0.36173 0.635618,0.36174 0.976681,1.0387 0.341063,0.67695 0.341063,1.58646 z" />
      <path
         id="path3041"
         style="font-style:normal;font-variant:normal;font-weight:bold;font-stretch:normal;font-family:'Open Sans';-inkscape-font-specification:'Open Sans Bold';stroke-width:0.264583"
         d="m 83.503561,141.93989 q -0.604613,0 -1.038693,-0.12919 v -1.24023 q 0.361733,0.0982 0.73897,0.0982 0.397907,0 0.578774,-0.22221 0.186035,-0.2222 0.186035,-0.65629 v -6.17014 h 1.576126 v 6.40269 q 0,0.91984 -0.532265,1.41593 -0.532266,0.50126 -1.508947,0.50126 z m 0.397907,-9.81333 q 0,-0.76997 0.857826,-0.76997 0.857826,0 0.857826,0.76997 0,0.36691 -0.21704,0.57361 -0.211873,0.20154 -0.640786,0.20154 -0.857826,0 -0.857826,-0.77515 z" />
      <path
         id="path3043"
         style="font-style:normal;font-variant:normal;font-weight:bold;font-stretch:normal;font-family:'Open Sans';-inkscape-font-specification:'Open Sans Bold';stroke-width:0.264583"
         d="m 91.291174,139.39742 -0.211873,-0.73898 h -0.08268 q -0.253213,0.40308 -0.7183,0.62529 -0.465086,0.21704 -1.059363,0.21704 -1.018023,0 -1.534785,-0.5426 -0.516763,-0.54777 -0.516763,-1.57096 v -3.7672 h 1.576126 v 3.37446 q 0,0.62528 0.222208,0.94051 0.222208,0.31005 0.707965,0.31005 0.661456,0 0.956011,-0.43924 0.294555,-0.44442 0.294555,-1.46761 v -2.71817 h 1.576126 v 5.77741 z" />
      <path
         id="path3045"
         style="font-style:normal;font-variant:normal;font-weight:bold;font-stretch:normal;font-family:'Open Sans';-inkscape-font-specification:'Open Sans Bold';stroke-width:0.264583"
         d="m 97.378636,133.51149 q 0.320393,0 0.532266,0.0465 l -0.118855,1.47794 q -0.191203,-0.0517 -0.465087,-0.0517 -0.754473,0 -1.178219,0.38757 -0.418577,0.38758 -0.418577,1.08521 v 2.94038 h -1.576127 v -5.77741 h 1.193722 l 0.232543,0.97151 h 0.07751 q 0.268716,-0.48575 0.723468,-0.78031 0.459918,-0.29972 0.997351,-0.29972 z" />
      <path
         id="path3047"
         style="font-style:normal;font-variant:normal;font-weight:bold;font-stretch:normal;font-family:'Open Sans';-inkscape-font-specification:'Open Sans Bold';stroke-width:0.264583"
         d="m 101.35254,134.63286 q -0.50126,0 -0.78548,0.3204 -0.28422,0.31522 -0.32556,0.89916 h 2.21175 q -0.0103,-0.58394 -0.30489,-0.89916 -0.29456,-0.3204 -0.79582,-0.3204 z m 0.22221,4.86791 q -1.39526,0 -2.180739,-0.76998 -0.785479,-0.76998 -0.785479,-2.18074 0,-1.4521 0.723467,-2.24275 0.728631,-0.79581 2.010211,-0.79581 1.22472,0 1.90685,0.69763 0.68213,0.69763 0.68213,1.92752 v 0.76481 h -3.72586 q 0.0258,0.67179 0.39791,1.04903 0.37206,0.37724 1.04386,0.37724 0.52193,0 0.98701,-0.10852 0.46509,-0.10852 0.97152,-0.34623 v 1.21956 q -0.41341,0.2067 -0.88367,0.30489 -0.47025,0.10335 -1.14721,0.10335 z" />
      <path
         id="path3049"
         style="font-style:normal;font-variant:normal;font-weight:bold;font-stretch:normal;font-family:'Open Sans';-inkscape-font-specification:'Open Sans Bold';stroke-width:0.264583"
         d="m 104.70116,137.20634 v -1.29191 h 2.77502 v 1.29191 z" />
      <path
         id="path3051"
         style="font-style:normal;font-variant:normal;font-weight:bold;font-stretch:normal;font-family:'Open Sans';-inkscape-font-specification:'Open Sans Bold';stroke-width:0.264583"
         d="m 113.79102,139.39742 h -1.57612 v -3.37447 q 0,-0.62528 -0.21188,-0.93534 -0.2067,-0.31522 -0.65628,-0.31522 -0.60462,0 -0.8785,0.44442 -0.27389,0.44441 -0.27389,1.46243 v 2.71818 h -1.57612 v -5.77741 h 1.20406 l 0.21187,0.73897 h 0.0879 q 0.23254,-0.39791 0.67179,-0.62012 0.43925,-0.22737 1.00769,-0.22737 1.29707,0 1.75699,0.84749 h 0.13953 q 0.23254,-0.40308 0.68212,-0.62528 0.45475,-0.22221 1.02319,-0.22221 0.98185,0 1.48311,0.50643 0.50643,0.50126 0.50643,1.6123 v 3.7672 h -1.58129 v -3.37447 q 0,-0.62528 -0.21188,-0.93534 -0.2067,-0.31522 -0.65629,-0.31522 -0.57877,0 -0.86816,0.41341 -0.28422,0.41341 -0.28422,1.31258 z" />
      <path
         id="path3053"
         style="font-style:normal;font-variant:normal;font-weight:bold;font-stretch:normal;font-family:'Open Sans';-inkscape-font-specification:'Open Sans Bold';stroke-width:0.264583"
         d="m 122.67934,139.39742 -0.30489,-0.78548 h -0.0413 q -0.39791,0.50126 -0.82165,0.69763 -0.41858,0.1912 -1.09554,0.1912 -0.83199,0 -1.31258,-0.47542 -0.47542,-0.47543 -0.47542,-1.35392 0,-0.91984 0.64079,-1.35392 0.64595,-0.43925 1.94303,-0.48576 l 1.00251,-0.031 v -0.25322 q 0,-0.87849 -0.89916,-0.87849 -0.69246,0 -1.6278,0.41857 l -0.52193,-1.06453 q 0.99735,-0.52193 2.21174,-0.52193 1.16272,0 1.78283,0.50643 0.62012,0.50643 0.62012,1.53995 v 3.84989 z m -0.46509,-2.67684 -0.60978,0.0207 q -0.68729,0.0207 -1.02319,0.24805 -0.33589,0.22738 -0.33589,0.69246 0,0.66663 0.76481,0.66663 0.54777,0 0.87333,-0.31523 0.33072,-0.31522 0.33072,-0.83715 z" />
      <path
         id="path3055"
         style="font-style:normal;font-variant:normal;font-weight:bold;font-stretch:normal;font-family:'Open Sans';-inkscape-font-specification:'Open Sans Bold';stroke-width:0.264583"
         d="m 126.77726,139.39742 -2.2014,-5.77741 h 1.64847 l 1.11621,3.29178 q 0.18603,0.62528 0.23254,1.18338 h 0.031 q 0.0258,-0.49609 0.23255,-1.18338 l 1.11104,-3.29178 h 1.64847 l -2.20141,5.77741 z" />
      <path
         id="path3057"
         style="font-style:normal;font-variant:normal;font-weight:bold;font-stretch:normal;font-family:'Open Sans';-inkscape-font-specification:'Open Sans Bold';stroke-width:0.264583"
         d="m 133.81557,134.63286 q -0.50126,0 -0.78548,0.3204 -0.28422,0.31522 -0.32556,0.89916 h 2.21175 q -0.0103,-0.58394 -0.30489,-0.89916 -0.29456,-0.3204 -0.79582,-0.3204 z m 0.22221,4.86791 q -1.39526,0 -2.18074,-0.76998 -0.78548,-0.76998 -0.78548,-2.18074 0,-1.4521 0.72347,-2.24275 0.72864,-0.79581 2.01021,-0.79581 1.22473,0 1.90685,0.69763 0.68213,0.69763 0.68213,1.92752 v 0.76481 h -3.72586 q 0.0258,0.67179 0.39791,1.04903 0.37207,0.37724 1.04386,0.37724 0.52193,0 0.98701,-0.10852 0.46509,-0.10852 0.97152,-0.34623 v 1.21956 q -0.41341,0.2067 -0.88367,0.30489 -0.47025,0.10335 -1.14721,0.10335 z" />
      <path
         id="path3059"
         style="font-style:normal;font-variant:normal;font-weight:bold;font-stretch:normal;font-family:'Open Sans';-inkscape-font-specification:'Open Sans Bold';stroke-width:0.264583"
         d="m 143.00878,139.39742 h -1.57612 v -3.37447 q 0,-0.62528 -0.22221,-0.93534 -0.22221,-0.31522 -0.70797,-0.31522 -0.66145,0 -0.95601,0.44442 -0.29455,0.43924 -0.29455,1.46243 v 2.71818 h -1.57613 v -5.77741 h 1.20406 l 0.21187,0.73897 h 0.0879 q 0.26355,-0.41858 0.72347,-0.63045 0.46509,-0.21704 1.0542,-0.21704 1.00768,0 1.52961,0.54777 0.52193,0.5426 0.52193,1.57096 z" />
      <path
         id="path3061"
         style="font-style:normal;font-variant:normal;font-weight:bold;font-stretch:normal;font-family:'Open Sans';-inkscape-font-specification:'Open Sans Bold';stroke-width:0.264583"
         d="m 144.11982,137.20634 v -1.29191 h 2.77502 v 1.29191 z" />
      <path
         id="path3063"
         style="font-style:normal;font-variant:normal;font-weight:bold;font-stretch:normal;font-family:'Open Sans';-inkscape-font-specification:'Open Sans Bold';stroke-width:0.264583"
         d="m 151.20981,139.50077 q -1.01803,0 -1.5968,-0.73897 h -0.0827 q 0.0827,0.72346 0.0827,0.83715 v 2.34094 h -1.57613 v -8.31988 h 1.28158 l 0.2222,0.7493 h 0.0724 q 0.55294,-0.85782 1.63814,-0.85782 1.02319,0 1.60196,0.79065 0.57878,0.79064 0.57878,2.19624 0,0.925 -0.27389,1.60713 -0.26871,0.68213 -0.76997,1.03869 -0.50126,0.35657 -1.17822,0.35657 z m -0.46509,-4.72838 q -0.58394,0 -0.85266,0.36173 -0.26871,0.35657 -0.27905,1.18339 v 0.17053 q 0,0.93017 0.27388,1.33325 0.27906,0.40307 0.8785,0.40307 1.05936,0 1.05936,-1.74665 0,-0.85266 -0.26354,-1.27641 -0.25839,-0.42891 -0.81649,-0.42891 z" />
      <path
         id="path3065"
         style="font-style:normal;font-variant:normal;font-weight:bold;font-stretch:normal;font-family:'Open Sans';-inkscape-font-specification:'Open Sans Bold';stroke-width:0.264583"
         d="m 156.31025,139.39742 h -1.57612 v -8.04083 h 1.57612 z" />
      <path
         id="path3067"
         style="font-style:normal;font-variant:normal;font-weight:bold;font-stretch:normal;font-family:'Open Sans';-inkscape-font-specification:'Open Sans Bold';stroke-width:0.264583"
         d="m 162.05665,139.39742 -0.21187,-0.73898 h -0.0827 q -0.25321,0.40308 -0.7183,0.62529 -0.46509,0.21704 -1.05936,0.21704 -1.01803,0 -1.53479,-0.5426 -0.51676,-0.54777 -0.51676,-1.57096 v -3.7672 h 1.57612 v 3.37446 q 0,0.62528 0.22221,0.94051 0.22221,0.31005 0.70797,0.31005 0.66145,0 0.95601,-0.43924 0.29455,-0.44442 0.29455,-1.46761 v -2.71817 h 1.57613 v 5.77741 z" />
      <path
         id="path3069"
         style="font-style:normal;font-variant:normal;font-weight:bold;font-stretch:normal;font-family:'Open Sans';-inkscape-font-specification:'Open Sans Bold';stroke-width:0.264583"
         d="m 169.94762,133.62001 v 0.80098 l -0.90433,0.23254 q 0.24804,0.38758 0.24804,0.86817 0,0.93017 -0.65112,1.4521 -0.64595,0.51676 -1.79833,0.51676 l -0.28422,-0.0155 -0.23254,-0.0258 q -0.24288,0.18603 -0.24288,0.41341 0,0.34106 0.86816,0.34106 h 0.98185 q 0.95084,0 1.44693,0.40825 0.50126,0.40824 0.50126,1.19889 0,1.01285 -0.84749,1.57095 -0.84232,0.55811 -2.42361,0.55811 -1.20923,0 -1.85002,-0.42375 -0.63561,-0.41858 -0.63561,-1.17822 0,-0.52193 0.32556,-0.87333 0.32556,-0.35139 0.95601,-0.50126 -0.24288,-0.10335 -0.42375,-0.33589 -0.18086,-0.23771 -0.18086,-0.50126 0,-0.33073 0.1912,-0.54777 0.1912,-0.22221 0.55293,-0.43408 -0.45475,-0.19637 -0.72346,-0.63045 -0.26355,-0.43408 -0.26355,-1.02319 0,-0.94568 0.61494,-1.46244 0.61495,-0.51676 1.757,-0.51676 0.24288,0 0.5736,0.0465 0.3359,0.0413 0.42892,0.062 z m -4.45966,6.59389 q 0,0.32556 0.31006,0.5116 0.31522,0.18603 0.87849,0.18603 0.8475,0 1.32808,-0.23254 0.48059,-0.23255 0.48059,-0.63562 0,-0.32556 -0.28422,-0.44959 -0.28422,-0.12402 -0.87849,-0.12402 h -0.81649 q -0.43408,0 -0.72863,0.20154 -0.28939,0.2067 -0.28939,0.5426 z m 0.57361,-4.70254 q 0,0.47025 0.21187,0.74414 0.21704,0.27388 0.65629,0.27388 0.44441,0 0.65112,-0.27388 0.2067,-0.27389 0.2067,-0.74414 0,-1.04386 -0.85782,-1.04386 -0.86816,0 -0.86816,1.04386 z" />
      <path
         id="path3071"
         style="font-style:normal;font-variant:normal;font-weight:bold;font-stretch:normal;font-family:'Open Sans';-inkscape-font-specification:'Open Sans Bold';stroke-width:0.264583"
         d="m 170.83129,132.12656 q 0,-0.76997 0.85783,-0.76997 0.85782,0 0.85782,0.76997 0,0.36691 -0.21704,0.57361 -0.21187,0.20154 -0.64078,0.20154 -0.85783,0 -0.85783,-0.77515 z m 1.64331,7.27086 h -1.57613 v -5.77741 h 1.57613 z" />
      <path
         id="path3073"
         style="font-style:normal;font-variant:normal;font-weight:bold;font-stretch:normal;font-family:'Open Sans';-inkscape-font-specification:'Open Sans Bold';stroke-width:0.264583"
         d="m 179.46123,139.39742 h -1.57613 v -3.37447 q 0,-0.62528 -0.2222,-0.93534 -0.22221,-0.31522 -0.70797,-0.31522 -0.66146,0 -0.95601,0.44442 -0.29456,0.43924 -0.29456,1.46243 v 2.71818 h -1.57612 v -5.77741 h 1.20406 l 0.21187,0.73897 h 0.0879 q 0.26355,-0.41858 0.72347,-0.63045 0.46508,-0.21704 1.05419,-0.21704 1.00769,0 1.52962,0.54777 0.52193,0.5426 0.52193,1.57096 z" />
    </g>
  </g>
</svg>
